<?xml version="1.0" encoding="UTF-8" standalone="no"?><!-- Generator: Gravit.io --><svg xmlns="http://www.w3.org/2000/svg" xmlns:xlink="http://www.w3.org/1999/xlink" style="isolation:isolate" viewBox="516.17 6707.007 229.66 177.905" width="229.66pt" height="177.905pt"><defs><clipPath id="_clipPath_7WcKcSrVgm5VKZxJX8aLYFOMtZEsLfYn"><rect x="516.17" y="6707.007" width="229.66" height="177.905"/></clipPath></defs><g clip-path="url(#_clipPath_7WcKcSrVgm5VKZxJX8aLYFOMtZEsLfYn)"><clipPath id="_clipPath_YrA0hefGfjPpU49jwHu4Ui9lf3SYyekw"><rect x="516.17" y="6707.007" width="229.66" height="177.905" transform="matrix(1,0,0,1,0,0)" fill="rgb(255,255,255)"/></clipPath><g clip-path="url(#_clipPath_YrA0hefGfjPpU49jwHu4Ui9lf3SYyekw)"><g><path d=" M 710.587 6722.849 C 695.949 6716.133 680.252 6711.185 663.84 6708.35 C 663.541 6708.296 663.243 6708.432 663.089 6708.706 C 661.07 6712.296 658.834 6716.98 657.268 6720.662 C 639.616 6718.019 622.055 6718.019 604.764 6720.662 C 603.198 6716.899 600.881 6712.296 598.853 6708.706 C 598.699 6708.442 598.401 6708.305 598.102 6708.35 C 581.699 6711.176 566.002 6716.124 551.355 6722.849 C 551.229 6722.904 551.12 6722.995 551.048 6723.114 C 521.274 6767.594 513.118 6810.982 517.119 6853.832 C 517.137 6854.041 517.255 6854.242 517.418 6854.369 C 537.062 6868.795 556.09 6877.553 574.765 6883.358 C 575.064 6883.449 575.38 6883.34 575.571 6883.094 C 579.988 6877.061 583.926 6870.7 587.302 6864.011 C 587.502 6863.619 587.311 6863.154 586.904 6862.999 C 580.658 6860.63 574.71 6857.741 568.989 6854.46 C 568.537 6854.196 568.501 6853.549 568.917 6853.239 C 570.121 6852.337 571.325 6851.398 572.475 6850.45 C 572.683 6850.277 572.972 6850.241 573.217 6850.35 C 610.802 6867.51 651.493 6867.51 688.635 6850.35 C 688.879 6850.232 689.169 6850.268 689.386 6850.441 C 690.536 6851.389 691.74 6852.337 692.953 6853.239 C 693.369 6853.549 693.342 6854.196 692.889 6854.46 C 687.168 6857.805 681.221 6860.63 674.966 6862.99 C 674.558 6863.145 674.377 6863.619 674.576 6864.011 C 678.025 6870.691 681.963 6877.052 686.299 6883.084 C 686.48 6883.34 686.806 6883.449 687.105 6883.358 C 705.87 6877.553 724.898 6868.795 744.542 6854.369 C 744.714 6854.242 744.823 6854.05 744.841 6853.841 C 749.63 6804.302 736.82 6761.27 710.885 6723.123 C 710.822 6722.995 710.714 6722.904 710.587 6722.849 Z  M 592.915 6827.741 C 581.599 6827.741 572.275 6817.352 572.275 6804.594 C 572.275 6791.835 581.418 6781.447 592.915 6781.447 C 604.502 6781.447 613.735 6791.926 613.554 6804.594 C 613.554 6817.352 604.411 6827.741 592.915 6827.741 Z  M 669.226 6827.741 C 657.911 6827.741 648.587 6817.352 648.587 6804.594 C 648.587 6791.835 657.73 6781.447 669.226 6781.447 C 680.813 6781.447 690.047 6791.926 689.866 6804.594 C 689.866 6817.352 680.813 6827.741 669.226 6827.741 Z " fill="rgb(35,39,42)"/></g></g></g></svg>