<?xml version="1.0" encoding="UTF-8" standalone="no"?><!-- Generator: Gravit.io --><svg xmlns="http://www.w3.org/2000/svg" xmlns:xlink="http://www.w3.org/1999/xlink" style="isolation:isolate" viewBox="681.233 6901 231.034 225.335" width="231.034pt" height="225.335pt"><defs><clipPath id="_clipPath_0lmeZOoesWmAWgeqehrv6pvHFYXiJfFD"><rect x="681.233" y="6901" width="231.034" height="225.335"/></clipPath></defs><g clip-path="url(#_clipPath_0lmeZOoesWmAWgeqehrv6pvHFYXiJfFD)"><path d=" M 796.75 6901 C 732.927 6901 681.233 6952.694 681.233 7016.517 C 681.233 7067.633 714.3 7110.808 760.218 7126.114 C 765.994 7127.125 768.16 7123.659 768.16 7120.627 C 768.16 7117.883 768.015 7108.786 768.015 7099.112 C 738.991 7104.454 731.483 7092.036 729.173 7085.538 C 727.873 7082.217 722.241 7071.965 717.332 7069.222 C 713.289 7067.056 707.513 7061.713 717.188 7061.569 C 726.285 7061.424 732.782 7069.944 734.948 7073.409 C 745.345 7090.881 761.95 7085.972 768.593 7082.939 C 769.603 7075.431 772.636 7070.377 775.957 7067.489 C 750.254 7064.601 723.397 7054.638 723.397 7010.452 C 723.397 6997.89 727.873 6987.493 735.237 6979.407 C 734.082 6976.519 730.039 6964.679 736.392 6948.795 C 736.392 6948.795 746.067 6945.763 768.16 6960.636 C 777.401 6958.037 787.22 6956.737 797.039 6956.737 C 806.858 6956.737 816.677 6958.037 825.918 6960.636 C 848.011 6945.618 857.685 6948.795 857.685 6948.795 C 864.039 6964.679 859.996 6976.519 858.84 6979.407 C 866.205 6987.493 870.681 6997.746 870.681 7010.452 C 870.681 7054.782 843.679 7064.601 817.976 7067.489 C 822.164 7071.099 825.774 7078.03 825.774 7088.86 C 825.774 7104.31 825.629 7116.728 825.629 7120.627 C 825.629 7123.659 827.795 7127.269 833.571 7126.114 C 879.2 7110.808 912.267 7067.489 912.267 7016.517 C 912.267 6952.694 860.573 6901 796.75 6901 Z " fill-rule="evenodd" fill="rgb(27,31,35)"/></g></svg>