<?xml version="1.0" encoding="UTF-8" standalone="no"?><!-- Generator: Gravit.io --><svg xmlns="http://www.w3.org/2000/svg" xmlns:xlink="http://www.w3.org/1999/xlink" style="isolation:isolate" viewBox="368.309 6901 224.941 225.335" width="224.941pt" height="225.335pt"><defs><clipPath id="_clipPath_dxDTfmIeLV7icAbSOsfb5bQ2efk152lM"><rect x="368.309" y="6901" width="224.941" height="225.335"/></clipPath></defs><g clip-path="url(#_clipPath_dxDTfmIeLV7icAbSOsfb5bQ2efk152lM)"><g><path d=" M 592.728 7003.153 C 593.037 7006.558 593.25 7009.993 593.25 7013.48 L 593.25 7013.48 C 593.25 7009.993 593.037 7006.56 592.728 7003.153 Z " fill="rgb(86,103,110)"/><path d=" M 425.871 7002.559 C 425.871 7002.559 394.593 7117.802 519.958 7118.805 C 559.292 7104.163 588.276 7068.264 592.668 7024.984 C 592.972 7021.99 593.062 7018.936 593.13 7015.877 C 593.142 7015.073 593.25 7014.29 593.25 7013.48 C 593.25 7009.995 593.037 7006.558 592.728 7003.153 C 559.608 7133.538 413.084 7082.468 425.871 7002.559 Z " fill="rgb(86,103,110)"/><path d=" M 490.693 6959.783 C 490.693 6959.783 373.97 6927.186 375.766 7054.459 C 381.749 7069.839 391.034 7083.719 402.967 7095.119 C 403.468 7095.593 403.987 7096.042 404.494 7096.508 C 407.869 7099.62 411.431 7102.523 415.16 7105.201 C 415.739 7105.615 416.283 7106.071 416.865 7106.475 C 420.809 7109.172 424.922 7111.614 429.178 7113.786 C 430.414 7114.423 431.685 7115.004 432.939 7115.598 C 436.601 7117.323 440.355 7118.846 444.184 7120.162 C 445.124 7120.483 446.021 7120.884 446.974 7121.182 C 451.564 7122.585 456.24 7123.691 460.972 7124.492 C 462.404 7124.742 463.851 7124.953 465.3 7125.154 C 470.209 7125.863 475.16 7126.247 480.12 7126.304 C 480.311 7126.304 480.494 7126.335 480.684 7126.335 C 484.425 7126.335 488.118 7126.134 491.761 7125.775 C 360.797 7094.543 410.576 6948.099 490.693 6959.783 Z " fill="rgb(86,103,110)"/><path d=" M 536.19 7020.14 C 536.19 7020.14 563.805 6903.718 439.5 6908.918 C 397.817 6925.383 368.309 6965.94 368.309 7013.47 C 368.348 7018.589 368.734 7023.699 369.465 7028.765 C 395.626 6897.049 544.664 6939.707 536.19 7020.14 Z " fill="rgb(86,103,110)"/><path d=" M 476.505 7070.24 C 476.505 7070.24 593.431 7085.504 586.112 6974.335 C 570.198 6931.543 529.109 6901 480.78 6901 C 473.936 6901.026 467.109 6901.675 460.383 6902.938 C 590.67 6918.932 556.807 7071.378 476.505 7070.24 Z " fill="rgb(86,103,110)"/><path d=" M 513.238 7013.483 C 513.238 7026.226 505.562 7037.714 493.788 7042.59 C 482.015 7047.465 468.464 7044.768 459.455 7035.756 C 450.446 7026.744 447.753 7013.192 452.632 7001.42 C 457.511 6989.648 469.002 6981.975 481.745 6981.979 C 499.14 6981.983 513.24 6996.087 513.238 7013.483 L 513.238 7013.483 Z " fill="rgb(78,79,80)"/></g></g></svg>